<mxfile host="app.diagrams.net" agent="Mozilla/5.0 (Windows NT 10.0; Win64; x64) AppleWebKit/537.36 (KHTML, like Gecko) Chrome/135.0.0.0 Safari/537.36" version="26.2.9">
  <diagram name="Страница — 1" id="gkW-iF0ZYVa-UZG-ScfM">
    <mxGraphModel grid="1" page="1" gridSize="10" guides="1" tooltips="1" connect="1" arrows="1" fold="1" pageScale="1" pageWidth="827" pageHeight="1169" math="0" shadow="0">
      <root>
        <mxCell id="0" />
        <mxCell id="1" parent="0" />
        <mxCell id="wYiebGZpBIIze_DZ11KM-2" value="Неавторизований користувач" style="shape=umlActor;verticalLabelPosition=bottom;verticalAlign=top;html=1;outlineConnect=0;" vertex="1" parent="1">
          <mxGeometry x="120" y="60" width="30" height="60" as="geometry" />
        </mxCell>
        <mxCell id="wYiebGZpBIIze_DZ11KM-3" value="&#xa;&lt;b id=&quot;docs-internal-guid-b785339d-7fff-0f99-a949-37b008aa5d2e&quot; style=&quot;font-weight:normal;&quot;&gt;&lt;span style=&quot;font-size:12pt;font-family:&#39;Times New Roman&#39;,serif;color:#000000;background-color:transparent;font-weight:400;font-style:normal;font-variant:normal;text-decoration:none;vertical-align:baseline;white-space:pre;white-space:pre-wrap;&quot;&gt;Карта водних ресурсів&lt;/span&gt;&lt;/b&gt;&#xa;&#xa;" style="ellipse;whiteSpace=wrap;html=1;" vertex="1" parent="1">
          <mxGeometry x="75" y="190" width="120" height="80" as="geometry" />
        </mxCell>
        <mxCell id="wYiebGZpBIIze_DZ11KM-4" value="" style="endArrow=classic;html=1;rounded=0;entryX=0.5;entryY=0;entryDx=0;entryDy=0;" edge="1" parent="1" target="wYiebGZpBIIze_DZ11KM-3">
          <mxGeometry width="50" height="50" relative="1" as="geometry">
            <mxPoint x="135" y="150" as="sourcePoint" />
            <mxPoint x="210" y="120" as="targetPoint" />
          </mxGeometry>
        </mxCell>
        <mxCell id="wYiebGZpBIIze_DZ11KM-10" value="include" style="edgeStyle=orthogonalEdgeStyle;rounded=0;orthogonalLoop=1;jettySize=auto;html=1;exitX=0.5;exitY=1;exitDx=0;exitDy=0;entryX=0.5;entryY=0;entryDx=0;entryDy=0;" edge="1" parent="1" source="wYiebGZpBIIze_DZ11KM-5" target="wYiebGZpBIIze_DZ11KM-9">
          <mxGeometry relative="1" as="geometry" />
        </mxCell>
        <mxCell id="wYiebGZpBIIze_DZ11KM-5" value="&lt;br&gt;&lt;b id=&quot;docs-internal-guid-2da6fdee-7fff-f7ba-b403-28cad5acc1c4&quot; style=&quot;font-weight:normal;&quot;&gt;&lt;span style=&quot;font-size: 12pt; font-family: &amp;quot;Times New Roman&amp;quot;, serif; color: rgb(0, 0, 0); background-color: transparent; font-weight: 400; font-style: normal; font-variant: normal; text-decoration: none; vertical-align: baseline; white-space: pre-wrap;&quot;&gt;&amp;nbsp;Карта з маркерами&lt;/span&gt;&lt;/b&gt;&lt;div&gt;&lt;br/&gt;&lt;/div&gt;" style="ellipse;whiteSpace=wrap;html=1;" vertex="1" parent="1">
          <mxGeometry x="75" y="330" width="120" height="80" as="geometry" />
        </mxCell>
        <mxCell id="wYiebGZpBIIze_DZ11KM-6" value="include" style="endArrow=classic;html=1;rounded=0;entryX=0.5;entryY=0;entryDx=0;entryDy=0;" edge="1" parent="1" source="wYiebGZpBIIze_DZ11KM-3" target="wYiebGZpBIIze_DZ11KM-5">
          <mxGeometry width="50" height="50" relative="1" as="geometry">
            <mxPoint x="220" y="320" as="sourcePoint" />
            <mxPoint x="280" y="300" as="targetPoint" />
          </mxGeometry>
        </mxCell>
        <mxCell id="wYiebGZpBIIze_DZ11KM-9" value="Загальні дані про маркер" style="ellipse;whiteSpace=wrap;html=1;" vertex="1" parent="1">
          <mxGeometry x="75" y="450" width="120" height="80" as="geometry" />
        </mxCell>
        <mxCell id="wYiebGZpBIIze_DZ11KM-12" value="Помилка витягу координат" style="ellipse;whiteSpace=wrap;html=1;" vertex="1" parent="1">
          <mxGeometry x="200" y="290" width="120" height="80" as="geometry" />
        </mxCell>
        <mxCell id="wYiebGZpBIIze_DZ11KM-13" value="extend" style="endArrow=classic;html=1;rounded=0;exitX=0.933;exitY=0.825;exitDx=0;exitDy=0;exitPerimeter=0;entryX=0;entryY=0;entryDx=0;entryDy=0;" edge="1" parent="1" source="wYiebGZpBIIze_DZ11KM-3" target="wYiebGZpBIIze_DZ11KM-12">
          <mxGeometry width="50" height="50" relative="1" as="geometry">
            <mxPoint x="190" y="270" as="sourcePoint" />
            <mxPoint x="260" y="280" as="targetPoint" />
          </mxGeometry>
        </mxCell>
        <mxCell id="wYiebGZpBIIze_DZ11KM-14" value="Помилка витягу даних" style="ellipse;whiteSpace=wrap;html=1;" vertex="1" parent="1">
          <mxGeometry x="200" y="424" width="120" height="80" as="geometry" />
        </mxCell>
        <mxCell id="wYiebGZpBIIze_DZ11KM-15" value="extend" style="endArrow=classic;html=1;rounded=0;exitX=0.933;exitY=0.825;exitDx=0;exitDy=0;exitPerimeter=0;entryX=0;entryY=0;entryDx=0;entryDy=0;" edge="1" parent="1" target="wYiebGZpBIIze_DZ11KM-14">
          <mxGeometry width="50" height="50" relative="1" as="geometry">
            <mxPoint x="187" y="390" as="sourcePoint" />
            <mxPoint x="260" y="414" as="targetPoint" />
          </mxGeometry>
        </mxCell>
        <mxCell id="wYiebGZpBIIze_DZ11KM-16" value="Авторизований користувач" style="shape=umlActor;verticalLabelPosition=bottom;verticalAlign=top;html=1;outlineConnect=0;" vertex="1" parent="1">
          <mxGeometry x="425" y="40" width="30" height="60" as="geometry" />
        </mxCell>
        <mxCell id="wYiebGZpBIIze_DZ11KM-17" value="&#xa;&lt;b id=&quot;docs-internal-guid-b785339d-7fff-0f99-a949-37b008aa5d2e&quot; style=&quot;font-weight:normal;&quot;&gt;&lt;span style=&quot;font-size:12pt;font-family:&#39;Times New Roman&#39;,serif;color:#000000;background-color:transparent;font-weight:400;font-style:normal;font-variant:normal;text-decoration:none;vertical-align:baseline;white-space:pre;white-space:pre-wrap;&quot;&gt;Карта водних ресурсів&lt;/span&gt;&lt;/b&gt;&#xa;&#xa;" style="ellipse;whiteSpace=wrap;html=1;" vertex="1" parent="1">
          <mxGeometry x="380" y="170" width="120" height="80" as="geometry" />
        </mxCell>
        <mxCell id="wYiebGZpBIIze_DZ11KM-18" value="" style="endArrow=classic;html=1;rounded=0;entryX=0.5;entryY=0;entryDx=0;entryDy=0;" edge="1" parent="1" target="wYiebGZpBIIze_DZ11KM-17">
          <mxGeometry width="50" height="50" relative="1" as="geometry">
            <mxPoint x="440" y="130" as="sourcePoint" />
            <mxPoint x="515" y="100" as="targetPoint" />
          </mxGeometry>
        </mxCell>
        <mxCell id="wYiebGZpBIIze_DZ11KM-19" value="include" style="edgeStyle=orthogonalEdgeStyle;rounded=0;orthogonalLoop=1;jettySize=auto;html=1;exitX=0.5;exitY=1;exitDx=0;exitDy=0;entryX=0.5;entryY=0;entryDx=0;entryDy=0;" edge="1" parent="1" source="wYiebGZpBIIze_DZ11KM-20" target="wYiebGZpBIIze_DZ11KM-22">
          <mxGeometry relative="1" as="geometry" />
        </mxCell>
        <mxCell id="wYiebGZpBIIze_DZ11KM-20" value="&lt;br&gt;&lt;b id=&quot;docs-internal-guid-2da6fdee-7fff-f7ba-b403-28cad5acc1c4&quot; style=&quot;font-weight:normal;&quot;&gt;&lt;span style=&quot;font-size: 12pt; font-family: &amp;quot;Times New Roman&amp;quot;, serif; color: rgb(0, 0, 0); background-color: transparent; font-weight: 400; font-style: normal; font-variant: normal; text-decoration: none; vertical-align: baseline; white-space: pre-wrap;&quot;&gt;&amp;nbsp;Карта з маркерами&lt;/span&gt;&lt;/b&gt;&lt;div&gt;&lt;br/&gt;&lt;/div&gt;" style="ellipse;whiteSpace=wrap;html=1;" vertex="1" parent="1">
          <mxGeometry x="380" y="310" width="120" height="80" as="geometry" />
        </mxCell>
        <mxCell id="wYiebGZpBIIze_DZ11KM-21" value="include" style="endArrow=classic;html=1;rounded=0;entryX=0.5;entryY=0;entryDx=0;entryDy=0;" edge="1" parent="1" source="wYiebGZpBIIze_DZ11KM-17" target="wYiebGZpBIIze_DZ11KM-20">
          <mxGeometry width="50" height="50" relative="1" as="geometry">
            <mxPoint x="525" y="300" as="sourcePoint" />
            <mxPoint x="585" y="280" as="targetPoint" />
          </mxGeometry>
        </mxCell>
        <mxCell id="wYiebGZpBIIze_DZ11KM-22" value="Розширені дані про маркер" style="ellipse;whiteSpace=wrap;html=1;" vertex="1" parent="1">
          <mxGeometry x="380" y="430" width="120" height="80" as="geometry" />
        </mxCell>
        <mxCell id="wYiebGZpBIIze_DZ11KM-23" value="Помилка витягу координат" style="ellipse;whiteSpace=wrap;html=1;" vertex="1" parent="1">
          <mxGeometry x="505" y="270" width="120" height="80" as="geometry" />
        </mxCell>
        <mxCell id="wYiebGZpBIIze_DZ11KM-24" value="extend" style="endArrow=classic;html=1;rounded=0;exitX=0.933;exitY=0.825;exitDx=0;exitDy=0;exitPerimeter=0;entryX=0;entryY=0;entryDx=0;entryDy=0;" edge="1" parent="1" source="wYiebGZpBIIze_DZ11KM-17" target="wYiebGZpBIIze_DZ11KM-23">
          <mxGeometry width="50" height="50" relative="1" as="geometry">
            <mxPoint x="495" y="250" as="sourcePoint" />
            <mxPoint x="565" y="260" as="targetPoint" />
          </mxGeometry>
        </mxCell>
        <mxCell id="wYiebGZpBIIze_DZ11KM-25" value="Помилка витягу даних" style="ellipse;whiteSpace=wrap;html=1;" vertex="1" parent="1">
          <mxGeometry x="505" y="404" width="120" height="80" as="geometry" />
        </mxCell>
        <mxCell id="wYiebGZpBIIze_DZ11KM-26" value="extend" style="endArrow=classic;html=1;rounded=0;exitX=0.933;exitY=0.825;exitDx=0;exitDy=0;exitPerimeter=0;entryX=0;entryY=0;entryDx=0;entryDy=0;" edge="1" parent="1" target="wYiebGZpBIIze_DZ11KM-25">
          <mxGeometry width="50" height="50" relative="1" as="geometry">
            <mxPoint x="492" y="370" as="sourcePoint" />
            <mxPoint x="565" y="394" as="targetPoint" />
          </mxGeometry>
        </mxCell>
        <mxCell id="wYiebGZpBIIze_DZ11KM-28" value="Авторизація" style="ellipse;whiteSpace=wrap;html=1;" vertex="1" parent="1">
          <mxGeometry x="590" y="120" width="120" height="80" as="geometry" />
        </mxCell>
        <mxCell id="wYiebGZpBIIze_DZ11KM-29" value="" style="endArrow=classic;html=1;rounded=0;" edge="1" parent="1" target="wYiebGZpBIIze_DZ11KM-28">
          <mxGeometry width="50" height="50" relative="1" as="geometry">
            <mxPoint x="520" y="130" as="sourcePoint" />
            <mxPoint x="440" y="260" as="targetPoint" />
          </mxGeometry>
        </mxCell>
        <mxCell id="wYiebGZpBIIze_DZ11KM-30" value="extend" style="endArrow=classic;html=1;rounded=0;entryX=0.225;entryY=0.038;entryDx=0;entryDy=0;entryPerimeter=0;" edge="1" parent="1" source="wYiebGZpBIIze_DZ11KM-28" target="wYiebGZpBIIze_DZ11KM-31">
          <mxGeometry width="50" height="50" relative="1" as="geometry">
            <mxPoint x="690" y="270" as="sourcePoint" />
            <mxPoint x="770" y="170" as="targetPoint" />
          </mxGeometry>
        </mxCell>
        <mxCell id="wYiebGZpBIIze_DZ11KM-31" value="Помилка авторизації" style="ellipse;whiteSpace=wrap;html=1;" vertex="1" parent="1">
          <mxGeometry x="710" y="220" width="120" height="80" as="geometry" />
        </mxCell>
      </root>
    </mxGraphModel>
  </diagram>
</mxfile>
